<mxfile host="65bd71144e">
    <diagram id="7PUoVaiqgk2mbBuWVBWX" name="第 1 页">
        <mxGraphModel dx="1725" dy="1032" grid="1" gridSize="10" guides="1" tooltips="1" connect="1" arrows="1" fold="1" page="1" pageScale="1" pageWidth="850" pageHeight="1100" math="0" shadow="0">
            <root>
                <mxCell id="0"/>
                <mxCell id="1" parent="0"/>
                <mxCell id="12" value="" style="rounded=0;whiteSpace=wrap;html=1;movable=0;resizable=0;rotatable=0;deletable=0;editable=0;connectable=0;" vertex="1" parent="1">
                    <mxGeometry x="680" y="180" width="150" height="320" as="geometry"/>
                </mxCell>
                <mxCell id="2" value="ESM 符号绑定&lt;br&gt;共用一块内存空间" style="rounded=1;whiteSpace=wrap;html=1;movable=0;resizable=0;rotatable=0;deletable=0;editable=0;connectable=0;" vertex="1" parent="1">
                    <mxGeometry x="230" y="110" width="120" height="60" as="geometry"/>
                </mxCell>
                <mxCell id="3" value="" style="shape=image;verticalLabelPosition=bottom;labelBackgroundColor=default;verticalAlign=top;aspect=fixed;imageAspect=0;image=data:image/png,iVBORw0KGgoAAAANSUhEUgAAAdkAAAE2CAYAAAAtVehVAAAgAElEQVR4nOzde1xUdf748deZQQFFEMMGQcULoKQpGMpqouKtFNIulmmWbGW2XXazdmvL3fZbrWXZ7berbm7maplZVuYuqetdMfNCK2mmAipeQBATuSiIzJzfH8MMM1yGGWCYAd7Px8OHzJlzPuczZ2bOez53pXv37ipCCCGEaHQaV2dACCGEaKkkyAohhBBOIkFWCCGEcBIJskIIIYSTSJAVQgghnESCrBBCCOEkWj8/v/9z9KA5c+YwevRo0tLSuHLlijPyJRzg6elJr169uHTpUoPTCg5U6RuqogBFxYp5++BIA8GB1be7C51Ox+9+9zuio6PZu3evq7MjhBCAlGRbhJiYGB588EFuv/32Bqf15EwDH7+vZ0iUcfh0cKDKltXlfPy+no/f17NldTmDIw31Tj88PJyXX36Z2NjYBudVCCHcnUd9DnrvvfcaOx+NLiEhgSFDhrBy5UrS0tJcnR2H6XQ6HnnkEbKzs1m+fLnNfXft2kW7du0YOnQoABs3bmy0fNx1u0pwoMq+VA3Z52FIlEpMJBxIdSyd2NhY4uPj0Wq16PX6RsufSW5uLq+//nqjpyuEEA1RryAr3I8psDZ2oL3zdmOpde58DVk5CsGBKlk5jlUX63Q6YmNjOXbsGCdOnGDcuHGNkjchhHB39Qqyc+bMAYwlWlOJ6+LFiwQEBODv7w/Azp07SUtLY8aMGXh7e5u3JSUlAZUlzU2bNjF+/HjzPkeOHLEquYWHh1ulodfr+fbbb0lOTgaMJaRx48Zx9OhRBg4cSFlZGeXl5XTo0AGAWbNmUVJSUmuJtmr6+fn5fPTRR+Tm5jJnzhz8/f2tjp0zZw7e3t6sW7eOyZMnk52dDUC/fv0AajxXQkICI0eOND+2PIfl9QQICgqioKAAHx8ftFot/v7+LFiwoNp1qYlloL127Rrbt2+3ub89vtmo4clEPSve17NohYb9Bx1vj7UsZdpTTWz6bBw9epRBgwYBlddswoQJ5mtteR1rKvnPmTOHoKAgc7qWnz8hhGgK9er4ZCot7d27Fx8fHwYNGkRgYCBbtmxh6dKlBAcHM3jwYCIjI9m4caN5W//+/cnKyuKXX34hPDyc0NBQQkJCWLlyJatXr6a0tJRhw4bRtWtXUlNTiY2NZerUqaSnp7NgwQI2b96Ml5cXt912G56enqSlpRESEkJERATt2rVj8eLFJCUlsXPnTjw9PdHpdCxfvpwvv/ySX375pdrrMAXY/fv3s2jRIjZv3kx0dDRDhgwhLS2Nw4cPM2DAADp27EhqaioJCQmEhoayevVq8vPzGTRoEN27dycvL8+cv8jISGJiYsyvMzExkUGDBpGUlMTSpUvN5xgxYoR5n6FDhxIUFMT//vc/Fi1axK5duzh8+DARERGcPHmSBQsWkJpqX/1sRkYGiqIwatQoFEUhMzPTofd2zHCViDCVrd9pOJahkJUDfUIhIlRlzHCVh6YYyM5VOJZRv85PISEh9O7dm5MnT3LmzJka9zF9NlRV5dVXX+X06dMMGjSIkSNHUl5ebrUtICCA1NRU8+ewqKiI1NRUEhMT6dSpE4sWLWLt2rV4enoCNMumAyFE89VoHZ+OHTtmLl3u2bOHkpKSatvAeAM10ev1bN682XzjS05O5tixYwQFBaHT6YiOjiY3N9eqBJeUlER2djZhYWFW5z906JC5ZGivYcOGkZ+fb1W6SUlJwcvLi/DwcHJzczl06BC9evVi+PDhDBkyhP3791vdqKu2mX777bfm1xkeHk6vXr3YvXu3+TpU3cckPz+fAwcOOJT/2mzfvp0ff/yRmJgYdDpdg9LKylFIfEbLQ89ozdXEr7+gJzjQuetKlJSUmK9TWloaJ0+erHGb6bNSlb+/PyUlJebPRFJSkpRihRBNzqm9iy9evGjz+bKysmqB8eLFi3h5edGzZ0+8vb1JT0+vdlx6ejre3t7mm2tZWRkFBQUO58/f35+goCAWLFhg/jdp0iTatm1r3icpKYn8/HwmT55cLSCDMThaKigooLS0lICAAHQ6HeXl5dVKT2lpaeTn5xMQEGDeZhkQGiouLo7IyEgOHz7cKGkGB6ocSNUw9n4P1m4wfmRMvY+bUmlpqd3vc0pKCjqdjvnz50tPZiGEy7T6jk/2tHXm5+dbte25s7i4OOLi4ti3b5+51GfL4EgDTyaqpKQqrN2ocNcEY0enc+eNwXXF+8aewC/O15CdoxDUxXhccMMKyE6XnJxMcnIyCQkJTJo0ifj4eKu2fCGEaApuN042LCyM/Px89u7dS0lJSbVqYdM+jVHyMwVPW1WqsbGxdO/enXXr1uHv709CQoLNNMPDw/Hy8uLEiRPk5ubi4eFhVS1s2sff37/Okr6j4uLiGD16ND/88INdARYgO0eha6DKk4nGMbBgrCI+kGrsTbz/oLFHsWmMbEykgawchYXL3e6jU6OkpCTefvttCgsL6d27t6uzI4RoZVx6p/T29mbKlCnmIJeQkEBQUJC5ithU5ZeYmGg+JiEhAZ1OR0pKis20TdWKtgLoiRMn8PX1ZcKECeZt4eHhzJo1y/z3uHHjOHPmDLt37+bkyZMMGTLEKmj269fPHHhNQ1VKS0tJS0sztxsOHz7cqsoyPj6e0tJSm22wubm5lJSUmHtr18UUYFNSUli3bp1dx4AxoL44X8Oi5VrWbtCwdoOxWtjkpTeN7bGWz898Rmt3+vaIjY1l/vz5df6AccSsWbOq/bgRQoim5tLq4pKSEk6dOsXvf/978zbLYRamqr34+HgWLFhgPmbZsmV19hJNTk4mOjqaSZMmMW7cuBqH8NSUvmmIkE6nY8qUKZSWlrJhwwYANmzYwCOPPMKUKVPMgSw9PZ0BAwaYh+hUHZ6zfPlyEhMTmTRpEpMmTQKMnaXsmTghJSXFnDdb1dpDhw4lLi7O4QBrciBVY3Nyibqed0c+Pj7mH0tgX7OAEEI0NqV79+5N34OF1jUjk7P5+PgQEhLCkSNHXJoPVzK9H4cOHZJexEIIt9E8GtaETcXFxa06wAL4+fnh5eXl6mwIIYQVCbKiRRg2bFid7dxCCNHUWv0QHtG8maZONE1n2VhjjYUQojG4rE1WCCGEaOmkulgIIYRwEgmyQgghhJNIkBVCCCGcRIKsEEII4SQSZIUQQggnkSArhBBCOImMk62PiNf4bGQIFP3Iwk/f4TtX58dVZhdy+u7LAGR83Z0xS1ycn2Zq2P2zCeozgMs5Z9myZL6rs9M8jbnC4ed/wRco3BvMzX9pjEUshvLCA78hskPllsydD/Hi0UZI2pkGxPLNuG5cOZjEA9sKGydNXT8+ndGTYyuTeM3lQ9G78e5zsfSikB8akJ9fT5nO5JCGpWEPNw2yfUmYPZJgijjy9Sp257k6Py1BxQ2jYAPTkj5reHJjrnD47sstL7iOW8VvXxxG/pc9+GSxqzMj7La1PTdvbV8RbLPYOrvhn8sZCb8hkh9Z+EEr/iFd4dexA2l/Otk6GOn68emMgbQ3bzjLuneS+VfTZ8+tuV2Q7Rs/m5FdszjyUxHB/V2dm1oc/TPT3P3XrJPNGlGCb8EN/K0lBVgX2bNaLmKj2dqeDff8wtSB1wDPBiQ0jX5dIXOnBFjoxs0hcHLzWatt784YSO7mVTx7CMCXP89KYPKsfpz48Ai7nJqfszz7ziqnnqExuVWbbMCt0xnJTpYsSeKYqzMjhGi9OgfR2dV5qK/cS1wBci82TlXxiNED6VX4I98cstxqDHTPmrcV8tq+s+Dbk5G1L+HtVk5cKgQKOOfk6m+3Ksle/G4Vbv2b3tQWa3KuatXrNN54fALs3AAjJ9ADYxvOkd4fE98Vrvz0Dx7d/T10fo6l94SR/tUKGG/R5lMtPbh1+Ac81b9d7eeMeI3PRsK3H6wn+IEa0ur8HEvvsajS6TCBzx6vXKTe5W1MT2zh5Smh5oeXv5/H3+Z+aLHDLCasnctgv8otp6yqciuez/ucVx97wbxP1D8zuaPzHv5513RyTI/5nFdTb7E4XyEH3hjAhs0QOO8Qjw31NR/fcUomL08xPcrgP6PHcrDxXjVQ2RZrkn38ULVS7djZfwTgwqk0woeOAcBQXs7hLd+Qvm+71b4Dxt9t3qdqer6duzB8+hNczj1H8aU8m2lVTaemtuKq+1wvLWHvlx+Re6Lyw6TrHcGvpjxCGy9vm2mNnf1HOgZ2Mz9O+34rhzZ9Xf2CuZFbh3/AUyHpLPw0m4THjd91sPiOm1S9Z1j147DzfuGo3CM88E5jrcrly8jevlw5cdbO0qkv/jrA3sA1IJZvxsG6zTB5XDeMVc6Z3FylzXXE6ASejfKtcnBN1dOm9loLp5O588uzVLVrWxK7ttnO3qi/fMHzMT4U73uL+17ZYeeLsuZWQdbtmauJK9o3a9mtx8iRpH71EN/GfMyoQR8w6vQ/WHh5Jk/1n8iM3d+zEoB2RN7zG6789A+mmQPvBJYOzzR/sWYkfEx819N8+8GfK44xfik/eyCoSoerEOIfr57WGxGf8eLRd3j0A4s8N1abbCMwBTbLoBk4bwsTxn3Ihs0Ab/Lgtqn0zPicV++qCKBPbOHlKZn8NrhqMLZD6FRe7ryHf44eS44pOD+xioObp5MzdwCvQp1tsm2BWFXDNVR+VlQu1fvVV1YTm4JRbToGdqOtV3s2Lf4rAMOnP0HYr0aTe/IYhXnngcqAbRmghtydSFhMnFUADeozgOulJSSvXEjuiaOMnf1Hq7SG3T+bziFh5udNwXns7D+ag2NYTBw3dO3Jl688CVQG8FsSprN71WIK887j27kLtyRM58rli7V25jIdV1Z6xZxWWEwcN4+9E8AFgbZ6R6f2Iz/ms5EVD6p2dOwwkKceH0jmzoeM94WI1/hs5ExeOP49b+aZfiBD6lcP8WZeZfpPPf4aPc3faXvvFy4yYCC3+Bbyw5G6S8UjAvyAQvIdLhl2Y3LMj7z7TiZ3PjeQsbMGcmxlEj9MSuCW2G7w5dlqAdEYdKum48ufZ8XSq5ag6ipuVV3cYpzbWfGlgvYd8thRy69Rq1+qee+w4xy0DxnGrQCdn2NUV8jc+WeLL9lnvLjzNHQIY3iVuqzMnQ9ZpJVNHtD5hqGN+rIq6RkdcZXCo144GOYqjVvFfUN9ufz9PKtgljN3bEWAhcB5E+hJBv+xKKGyeCz/yYCON8UR6Og5CypLtvAhB38uBL8b6WLn4e1QWKi24W3Vg7+rbdhgaMufVQ9CVMXRnDjk6uVL5uBVmHeey7nnaOPljbdvR8AYmAJ730T28UNWgWn/18urlXavXr7E9mXvmEucVwvyzWnpekfQOSSMUwf3mJ8vzDvPuaMHad8xAF3vCADS921n+7J3zGnWlCdv34608fLmakF+ra+rR9RQ2nh5c3jLOvO29H3bKbx4nht7htf7ej3/Y0foXcRnY+re19r3vPnpQ0z74CGmffUjVzB+r6Z9UPGv2kiCq6R+ZVETdPEyV2hHxwCAaST0b8eVn1aY7wXwPW9u+pErhNAvwiIZO+8XrvDr8G5w+se6e9/q+jE7yte+fWtwcp+pHdeX9vn1SwP88PeFK5cK6nNwjXa8ch8TJ06sdykWpCTrFFcuZ1Y+KLrMqVr2y/vF+st06vJV6NqRnsB3AR1pz2l2VK3KPfozmSMnGL/I5i/vVS5ftNzpM178wBmlVT2ffZHFML927HmrOzdvbUBSYTfSkUIO7Kg9THfp7AsZG6pV0x5MzeCOKcbgmNOALDhqkAqDLQJqW+BuVcNdaNipGliu6PlRafpFrbz9/AHIO5VW575lpVfMpV+w7nQVFhOH1qMN4UPHWFUFg7Fa2Tcg0Bx8q1bxgrHK2CT3xFHyTqcT1GcAU/6yqMZqYp9OnWnj5U3sjKeq5fPq5Uv4du5ilVe7LfElZMk1tv73DKef78jnt/nyvOOp2CGPLMuRD3mmWiMq2nSvkn68SsDM20N60UDCLH4A23u/aHK6foyt1uGpJsZOUO05y7p6lSCtS7/1D5Jn+eZgIc9GJfBNFLVWEzc1CbLuxp2+ZNVomXZfd4zB9gyn79ER8kRDenA2L57UXGJVgFFoGKVq+BGVFYqenRgwNG32Gk1dbaJjZ/8R34Au/LjxS3NJ2VTNbMkUwE3tt1P+ssiqVA41t+U21KxXLvKnX7Xl89u643BhVpiN6NeT9tU6PFVlOWbV9cN3zNXKA2L5Zlws3zwHFP7Iu07v8Vw7qS52Iz07toOCbGOV1MXL1auVACJuoke1kmtT07LtaDsIKGdWfZNIv8BlfAkIq32X83mFEHoLVZteoiJDoeAC9SjjNEiyYuBAHSXVgarCuwYPvlbbcLeqoW0T5KukokrWVKKtr8KLOejLr+PTqfZ+tb6du9DWqz2FF89Xq4quzaFNX/PlK0+S9v1WvHx80fXqC0DxpTy0Hm3wDXC44t+msM5X4YSnk0qvdsrLJo92hPWp0mTTeRhhHarXYrkfezo8VbSBNnBSCKc4lMyd76zizs2u7/EsQdZN3Dr8A+K7XiV1X0U1b94e0ougx8jXmGHeaxpvjAyxasOx3/dkFQBdb7JIz4U2Tyc5A3pOOcSEcZWbjR2fjH/n7PiJy4Ryxz/frNzhiS3cEQqnNle2rebkAZ27mdtoo/6ZyR2VHZYdzNdZ8oGekW9We6oMeEYpZyl6Cj28qz1vKURV+LPqwQZDWx5RtVTtF9mYTO2YoYNHEhYTZ95u6vhkL8sq3gHj765xn8K885SVXqGtV3t8Oxtbs6v2kq6NT6fO6MuvU3jR+M5lHvye0uJCbhoVb27vbTk+48g5aN9/Ji+Yf7MM5YXxA2lf9CNJLh5nP2J0At88N51vZvVjRE07DBjILb5n2WJjxqhfT0kwdoqyI8D+esp04/mmdLO9YyMzdsaq/zCdUX/5gvXr17N+4aP1zoN7VRd3Hs70u/th0bmPfnfPph/AuZ0s+da1o2erDacxD4e5SupXjzsc+HpY9lzEshcxGDthfG/sYfz4x8RXbDX3IK6HlUn/IPiB31il58ohPAcf68H5eYd47MVMBr9o3Hb5+3n8raLjE5un87fNxh7GL2+bWrGxkANv9DB3jjKm8zn9t03lsW2Z5jT+mfc0j91Un1y9wCdvdOO3L1qes3IIz1VUFmn0/MtwF5883o6Qr9ehvVD7G98JeErV8oiqYa1iYCV6zlfUOldt1zS1X9anCnXLkvkMu382A2+fwsDbjWOPso8fsru0abJn9RKG3T+7WrusZZvq4S3r+NWURxj/xJ8AY/vpqR9207XfLeb9Tb2ENR6Vt5iqr6sw7zy7Vy1m+PQnqrXLNodhPHVZmfQQp4Z/wFP3fIy5h0QNw/RcoXcn2z/7jB2ebFT/DohlcgiAL7fMmM43ls9Vq571pWvDKlnsU20GKmjoLFQ7snN5Hh/oNZBHgaX1SEPp3r170/fUaO0qxq7muXqMagPMeuUif4rw5q/3ta9/D+NmbtRfvuCFaG8K352Muk1LHzt6GeuBTYqBFeg57oJOUq3BW4vPMJXW1V+gUVUEq8rZnNzPiNEJPNv7VBO0tY7ildXPM9j3BF9PfLpeQVaqi0W9fJjdFvx+4f7Zrs6JqzzKPTE+qFf+xz+2G5imXOdxpZy9dXR30gITVA2r1TZ8oHrwKzS1dKcS9XONW3pDYZ57VdI1J/Z1eGpK3XjXqlq7G3dGOTJBRgPMuofBvlC876t6BViQkqxrtICSLJh6cV4FWtcqPI8uXM/dvYCTXzPxqepfvT6qwkNouU3VYM9aMMcVlY/Rs0kxUN7ouW0lLFbh4YSUYlucipWFTBp1haGajH6FL34/GB/gxNqJPN2A6joJskI4SRcVHkDL3aoGbzvKqzkKrETPWsXAVeRrKURLIEFWCCfzBe5VtUxXtXSyY/8i4AtFz2eKnl+cnDchhHNJkBWiibQF4lUNM1UtIXaUbK8DSRWdpE5LJykhmiUJskI0MQ0wAmOwjbRz3uMdGFih6EmVYCtEsyJBVggXGqgqzFS1jLKzl/EhRWV5M5+2UYjWRIKsEG4gpKJHcoKdUzGeRuUTRc9/FANlTs+dEKK+JMgK4UY6AdMMWqaitZr5rDaXgM80etZgoEB6JAvhdiTICuGG2qFwp6rhQbQE2vENLUGtNm2jEML1JMi2Csb5f3uaH1fOxesUTzzNtikhlY8zNjL6sS3OOlt1sws5fTdOXEe06XgA/0rMp/+GznC+7gna9MAm9HysGDgmnaSEcDn3C7IRCcweEVz5uOgIX63ajUtXdmtBAucd4rGhF5wbZM1CeWPt48TkNWGQrZj550JzmYHqiS28POVGDrwxwGrRAytjrnD4D7+grurOd8uNUzHaY59iYIViYC8GqUgWwkXca4LPzsOZPsKXI18vYXceQF8SZo/knviLLl+BRzQH19j6/C+wN7h5BFh7bW3PzaF6Tj9wkY5ZAdy/xb5pG2NUDTGqhjRFZYVM2yiES7jXAgF5u1m1ZFVFgAU4xt6fiqBrKH1dmS/RLLy1OJfQghv421/smTG4mVniy+cnrjJs9hVGKCpzlXLuUMr4VNFTUkc5NVxVmKd68B+1LTNULe2kWCtEk3GvkmytfAnoDDi8ULlzWC8KXlhDVV/VNtAq+4xbxW9f7E/6G3+HJ+Yy2K9ie8bnvPrYC1bnMlbvWq79WMP5ntjCy1MsVikv2MM/7zItat6Q1wanvuzBJ4vrkZBdxrJk2+2EmR8Xse+NV3hxs619atvXuPpKxte2l95r8HtXU/XuuFX89sVh5JuulR3vb9XrPNhiTd3a3r/nv7qBCc//wv2z2/PhEjivwNvo+aeit2vaxkAVnkPLY2hZg55VMm2jEE7nXiXZGgR07AAUctEtAuwsJqzN5I7QDP4zugevju7Bq6P/DveuItC0y7hV/HbbVPy/n1fxfA/++b3xJvrgE5Zp+TL4xbkEbK5I58sMCJ1qvc8TW3hsKBx4o4c5rVdHWweFwHmHKm76pufncYBhPLZtC1H1eW18XnmuN/bgP6VqvhvJuAf497bb6fL9B4we/XtGj/49876HmBffZon5fBUBNmOjxT5F1BiMZ18jlHZcyKjj9TXKe2cP2+/vwccstlcsRG++7rX9QNrqxU8FcGOQ3mpzIfCRomeCpoxXlXJO11Gy7QA8rGrZYGjLy6oHPeycdUoI4Tj3DrIRCYzsCkU/7cUdWmQD5z3NYL9CDrxh2WnoQzY8VnlTjLp3GB0L9vDF3MryVM7cv3OgAHpGvmmVnlUpcfEPnAL8g2dVni/4RuACObV1iOFNxg315fL3f7cIvB+yYfEeLhNKf0cCwxNTGeyXwX8sS9Kbp5OcUT3fjeHxe6PwKTjI/5tbGRW3zv2UfQUQFjnWuGGcji5Aemplp6mtOzIopgOdqhRtZwWVQYE327bWfL7Gfu/sUdf76zgtZy+Cb0QpNaVSBqxVDNytuc4cTXmdUzC2Ae5SNaxV2/C+wcPuKR6FEPZz3yDbeTjTRwRD0RE2fecefYu7dPaFgp84WGvQm0VgZ7j88/YqJZEPOfhzIXTuVllqskPO3A2cIpQ7tmXy8rZDTBhXZYdx3fCnkPQdVSpIN28nvcCxG7oxoJvOVfnvjlAcznfdQgnpDMU/78M6Jmaw5eci6KxjDMDmXM5jEXSBMaNC8eE0B6tUYYd1vmrzjE393rmSAeNcx79WrpOoXGe7Hb2LR6LhX2obVqhtiFMVu9bBFULUzT3bZDsPZ/rd/ehAFjtb9fCdF/hk9AsYqzrnmtvtnNdO6uTxsw7L5FIBEHo727bdXrGtiH1v/J0PquyZntcOApo4e65y0cNmu7OlHxWVZ5Vyu6dtHKAqvEsbzqgqH8u0jUI0mBuWZPuSYAqwS5LcoprY5HxeIfjdSJda9/iQnDzoeFNclVLPLKJu8oW8s/XqjAQfsuGuivZWy6rLzWfJx5ewUVVKrOPiCPOD/Cx7b8WQk3UBuJHAqqVlp8jgdB743BRjLLGahTL2pg6Ql2ss4T4xgRi/03xR0R5r/Fe1Y5TRh9ltwa+E0WOqPweufO8ak55uAVCY5/hv49OKymtKORM0ZSxFT1Ed+3dH4U+qBxvVtjyqavGza/kCIURVbhZkAxg+fSTBbhhgwaL6dq1FZxlmMeGflY8PpmaA3zDum2fRtmpqD1zzAg0TSoAfXM4ztWO+wE8Z0HHo0xZVybOY8ISxbXGzI6XdxZ9zoMCXwS/a12Hq0YXrWb9+PesXPurQKzD5IPU0+EXxu3mVXWzHzHuAGL8i9q2xnLiiEyH2BP4lnmRwlf4j9DU+3WjvXfoFLuNLgKlNuKJncUc7slijivSq/VCqyZhS+vvBhez6V+ZeAhZp9Nyuuc4CRU9OHbHTX4UnVS0bDB48r2oJkmArhEPcasangFunc0//WqZFP7fTTSakqKi6NQ3LqGkYSLUbb5Vq2KpDPgDT0BH/7+fxt4qON1WHeQBctnjepNown6pDgWwEAuv0qr42o+rV06N4ZfXzDPYFTn7NxKeWWu0/Zt5fmDu0pvexSq/gcQ/w7xej8DE/f5ovRltXBT/+z7e5r8o1ACj+/gMmzbXuSvzW4jNM7d3RxnSKjfDeUfV6Z/Cf0T/Qf9tUsBrCU/f7a2bnEKy3Fp9hasAN/PU+28OUHOEBjFM1zERLHzs6Psm0jUI4xq2CrBCWjMH6UrXAa9xODWNqr7H1v7ncuDeYm1vahBSzCzl9dxl73gpgWi09qBtCAWLQMNOgsXvaxv0Va9vKtI1C1M7NqouFqBTWueZaDeP2S5yu1jbryZivO+L7qywOv1JztXGzNOYKh+++TOFef6cEWAAV2IuB32jKuV+5znrFQF1XcIiqsNjgwWq1DfGqxk17UQrhWlKSFW6sYoGBKtXXFBxk3l2fUmu8aUGr8ICxmnhCXtOXzruo8ABa7lY1eNvRFpuDyqeKga/Rc1WaboUAJMgKIergCzLgNW8AACAASURBVHZN22hSBKxR9HymGLgoFcmilZMgK4SwS1sgQdXwkKolxI6S7XXgW8XACvRkSicp0UpJkBVCOEQDjEBDoqploJ1TMe7EwAqNnlRUKduKVkWCrBCi3gaqCjNVLaPQ2DWC9rCi8i/K2aWodXasEqIlkCArhGgwe6dtNDmDyieKgf8oeq45PXdCuI4EWdFkEubGkDRvn6uz0aQS5sbUuU99rom7XssbgGmqlvtULbVMK2PlEiqfKQbWKAYKpCJZtEAytE0IJ7MVDO0Jwqb96krHnqDrrKBv8guwUNGzTDFwp6rhQbQE2oidnVB4UtXyiKrlG8XAJ4qebAm2ogWRICuahLuWvJqLpHn7ar2Gjl7bxgj6dbmKyipFzxfoGUfd0zZ6AferGu5VNWzGwApFL9M2ihZBqosbyGd8P0aFX2THwlyKa3gumgx2bGpdrU4NuVG7SyD2Gd+PUYN94NRRklYV1judhpYc63sta0vT2SVZS5af//pO27hC0fO9TNsomjE3K8n2JWH2SIItN7nNwgA18aXvYB9y1h+pDLBddIx62Jtj8zItgq4v0XO7UbDsCOnnXZLRxhXVg4SJ7Tley+upepNucCk2qgcJE3VQkFnjjxl319Ag6ui1qytNp5Zka/n83zK3G78sO8JvzhvoW9FJaryqsbk4/BBVYYjqQRrGtW3/qxgob1juhGhybhZkj5G0xDKgGoPu7HjcM9BGdSKQXFIsl2g5n0vKgX6MmhtDzqlciulCwlwdnDpKSksIsI3EvsDrS/TcCAJPZXK8APo0Sc6MijcdIWlTE56wBpbXyN5gXNN1rXpsXWlZPu/wjyM7Pv/HFJWXKOfvmKZt1OJtI8lwFP6qevCUqrJKY+ArVaZtFM2HmwXZqo6x96dB3NM/lL4cc7P1ZT0Ju1VH8YHUakuSmW7QgdNjiO6UyY55+5pd6aux1L8U60nYUxGwfh9JBz0Je6rRs9ZkGqvK154SaE37NHUVvL2f//MKvI2eDwd0ZW6nYgZvL7K5Lm8gCs8atDyGli+QaRtF8+DmQbZC0WUuujoPVXXpSLBfMVmHq7e3mtrzck7lknPJm1FzYyg+kFrPtllPwp6KpI95kvxcUuZlWgd2U3WqSdVq1Zqqd7voGPVwD4rX7zOWxLvoGPVwAFnLMuAei/NZtEkGTo8humflafo8HFNZuqyhKrdhVY/XSF/YGMHBWBpm/VGYGEEgkLN+H+cijK+l8n2pKDVXObqm983cXlu5l91V5w3RGJ2SmqJN1tHPv/fNgeziKH/SlNk1baMP8LCq5UFVy3rF2EnqlARb4abcO8h2Hs74/h3I2rXb7YJsYFwPfAoyOV/1xtpFR/TgK6TMO0JxRcePpFWXiJ4bSthhR9tkK278BZnsmGcKYL5ET/clpyLwGW9ocHzZvoq0jUF51Fzv6sG4Tj70eTiSnPX7SDpIRXCOIDrKGIhzVu0jCepsk4XKEqzppl7Tzb3qNmeWuAInduP4sn2ci4uh76396JuWyo6LoYwa3IXATZnkUEiK1fmN196nakJRPapc7+qc0fGrMdu5LY+rmk5jtMk69PnvoqNvT8hZX0gZ8LVi4BvFwEg0zKxj2sY2wGRVw2RVw07FwMeKgYPSSUq4GTcMslU6P53byaqjrsxPTXzp2hNy1tfQCed8LjvmGf+svEEXkjLviMNnCZweYWzztSohFpKyqjIffQf7UHwg1eLmdY30rzIJfrgHXaMyyTmIQ3JMJVuAg5fImajDp7MnODAvT00BoNE7Qznq1FnSz0Mg4ON3hZRN12C848n4dG4PXKHIxo+lxhjPWvUYe7fXZ6xsYw3bARz+/PvcHIBPQaZVvwYDsB0D2xUDA7Fv2saRqoaRqobDispy9Oy0Yz1cIZqCGwZZ685PfeNnM3t2KDuXJLlNm6zP+G7VOzzVoHjTEXbU+yyedOgEnLpUe2m0izc+1FBlff4yWQUQ7GBwbCzuMgzHUvFFi+tQUFLvNvLiTWfJGRxB9FwdtqqJTRrrx4Q9P1LsDZZOLclaqPvzb/qRmFHr+/GjovKsUm73tI03qwrv4MEZVaZtFO7BDYOstWPf7iR09kgG3RrAse/codLYky7hxhuDY1WxomUwVStXtJVXtEtb1QDUob4l0Mbi1JKsI0y98+3oq3BaUXmNchYr9k3b2B2FuaqW36gaVldM23hZKpKFC7h9kDUpvOQOARabHZ4a1zWKLgGdvPGhsOZf+udLKMaH4Js9ST9vkZ8uHQn2g+I8+Q3vPMaOWemmYBvhCwftm7SisQOqI6Vll1fbWwiMMA7tceTHan2mbXxC1fJwxbSNKxU9WRJsRRNy8yAbwPDpIwkuOsJXbtIuGxjXA59TR5tkUomc7ZkUP9yDUdNLLGYd8iV6OqSsKgQKOXcKogdbdirxJOyeHtbtXDklFKPDLxA4j7lnsQ/Ur9q0Ir1qwd2VzK+p7ircxuWJnx8Up1W/Dpadv5wZyBw5h6s7oJl10dG3ZzHHl9VvNq36Ttt4n2naRo2eo8002B402LPOUfMUpSlzdRYanXsF2YgEZo+wmu+Jop++YolbVBNDZYen+k+z55DzueyYV0L03AgS5po2GofwmOSs2seO8f0YZTmcpupUgOdzSTkQwKiJMSRMNKVxlK5zI+qfr/XeJEyMJGFwxTYbszHVt+NO9aEyPRg1twdQQ/VsoHf1nsBOUHUYE9Q8zMcy6DU00NpzXHMryRo7PF2s3jvfQeXABsXARgzEKHVP26gBbkPDbQYNByqmbdxTzx7JHiiUN9NALZqOzF3sAONN/0o9hsa0Xs13YQDT+Fr721pNbE3kXxd7r5Wj17U+7a7Oe98qhkfVe+y4bfZO22iSjjHYOjpt4yS0ZKkGfmjihQxMJdmWVOpria/JRIKs3Yxtb8FpzrkxCNfyGd+PvnlHzAFVflA5UVQPEibi9GvbRTVN26jB2+YAIKNcVD51YNrGB9HymEHLw5rrpDdhibYlBqSW+JpMJMgKAdg1s5ZolvxQmKJqmK5q6WTH/sXAGsU4bWOejeD5qKrlSVXLBVRmasrJaaJA2xIDUkt8TSYSZIUQrUJbsGvaRpNy4Fsb0zY+XdFrGeAEKr/WXKeokfNck5YYkFriazKxb2FHIYRo5kzTNt6tuc6zmnJ+rKMt1QPjtI1fG9rw/1QPBlWZdcrL4u/eKLxr8LA5UYZonSTICiFaFdO0jYnKdRKV62y3o3fxCFXDRwYPVhg8GFPRocqrSmk4Gg2vqR5yUxVWpLrYTu3atXN1FoQQTtLdANOuG7j9usGu0miWRuG6qtKjhrvn5201/K2t80Ltd8XGPtC3+rjXCMyGaImvyUR+dAkhWr0zGnjTU8M97bV83FZDsWK7zTbYUHOABZhaZuD+6wYn5FI0Ry3vZ4OTXb161dVZEEI4yVXgPWAJcJeiZUYd0zbW5ulrBrKvl7ERZwRbY1m7Zd2LWuJrMpKSrBBCVHFVgU8VPXcoZbyklJNWjwknXjV4cIuNqR5F6yBBtoF8xvcj4Smd7Sn9uugYNbcfYV2aKldCiMZgmrbxfuU6v9GUs9eBkmkb4H21DWF2DBcSLZcbB9kZzF+9mtWrVzP/IVfnpTbG9TBzvqt5zl4T46ICZ5tw0noni+pBgvxoEK2ICuzFwEcaA6UOHOcDLDR4ECiBttVy2yB76x/i6OHqTNSlYj3Mczbntq1YVOBoEy0qIIRwiuGqwiKDh9X4WHvciMJCg4fN9W9Fy+WeQTb2BR6+pT2Z65PIrHtvF/Ek7FYdxQfO25x6z2d8NwILMjnm4CTzQgj3cRsa3lPrP9mETFbRerll7+IZ8VG0LzrIso/hjomuzk0t7Fq83ZMu4T4Up2XUb93WijTqnFM3qgcJE3WVj6suOxfVg4SJ7a3XWa1Yf7XYtMpMFx2jHg4ga1kG3GNxPotl86ou89bHcnm9Gpe6s2+1lcDpMUR3qn2pPCFc6W5Vw59UjwZX+Jomq3hRKXdKn2PhntwvyD40n4QeVzi46E2+YwZ3uDo/tQiMMy6MbnM9zKgu9PEr5rjNQGyLMUgFFmSyY54pAPkSPd2XnIrAZ1wtBo4v21e5aPtTkYya612PCe596PNwJDnr95F0kIrgHEF0lDEQ56zaRxLUHLSFaIH6qAqxqobdigGtCh6KghbQqOChgFYFbcX/5scYqwg9zP8r5udGqxqewYN3FUcW1RPNmZsF2Vt5IbYHZCbxZrKr82KLafH2Ojo8Rejg1NF6B6LA6REEkkuKVQmvkJRVlfnoO9iH4gOpFue4RvpXmQQ/3IOuUZnkOFhNbbUY+sFL5EzU4dPZE5Dl/UTrc1xRmWMKiJZFWaWO/2sifZ9aJbcKsrf+4WGiOmSSNGulq7Nik8/4bsbgZyuAddHRtyfkrK9vhydPOnQCTl2qvTTaxRsfaqiyPn+ZrAIIdkVwrFp1DTA4koTBFX+fOkrSKowldKudejBqrqmrmywzJ4RoGdwoyM7gjlvac+WHZbh3iK1oZz2QYbvD080B+BRk2g7ELdHBTJIOmrqr1d4mmzJvn/lvaZMVQrRU7hNkH+pvHLJzy9OsXv209XMTV7N6ImSuv58/fuyKzFlosg5P1yi6BHTyxofCmtM5X0IxPgTf7En6eYv8dOlIsB8U50kVrxBCuJL7BNmP/8j91QLoDOavTgB3CK4VjBNL1NHOGtWFPn65pNjoUWuPnO2ZFD/cg1HTS8w9fI0dnyBlVSFQyLlTED04lLDDRyo7Pt3Tw7oUnVNCMTr8AoHzmHsW+0D9fgRUpFctuAshhLDiPkG2WfCp6PBku53V1OGpwW2K53PZMa+E6LkRJMw1bTS2V5rkrNrHjvH9GGU5nMZi2I0pnZQDAYyaGEPCRFMaR+k6N6L++VrvTcJEi7bWGofwFFpVC9fG3GtZCCFaGFlP1k7t2rWjfVxvYiKLbHfKqTr+VAghGtFBg3FKiyhNmYtz0nha4msycc8Zn9xSWzr3alf3DE8VHZ5khichhBBSkrVTu3btgJa53qEQovloiaW+lviaTKQkK4QQQjiJBFkhhBDCSaR3sYNM1cZCCOESxcZpHlvUvaglvqYKUpIVQgghnERKsnaSDk9CCPdg7CTUsu5JLfE1GUlJVgghhHASCbJCCCGEk0iQFUIIIZxEgqwQQgjhJBJkhRBCCCeRICuEEEI4iQRZIYQQwkkkyAohhBBOIkFWCCGEcBIJskIIIYSTSJAVQgghnESCrBBCCOEkEmSFEEIIJ5EgK4QQQjiJBFkhhBDCSSTICiGEEE4iQVYIIYRwEgmyQgghhJNIkBVCCCGcRIKsEEII4SQSZIUQQggn8XB1BoQQwt0EodADBU/AC4W2qlrxt/Gx6W9PlIr/Me9b+bfx+baqihfwtWLgHUXvmhckXEaCrBBCVFGEyq8NWqIbpbJPYbei8v8UQyOkJZobCbJCCFFFEfCkppx5qgdj1YYF2jRUXuA65Y2TNbODhraNnKJwBo/w8HBX50EIIdzSR6pK+YV8bs8vrNfxlz20vB/Sha5tGrE8cyyz8dJyMy0xHindu3dXXZ0J4b48Pb1cnQUhXEoBHixXeeK6Y7fKUuBxL4VjiuKUfInmQXoXCyGEDRogS4F8B2KlCrzcVgKskDZZIYSokQcwrlwlUa8S4mCfpb+3UdillQArJMgKIYSVtkB8OTxYbiCoHo1p33gofOYhAVYYSZAVQgiM41onl6vMKFfpXM+eKvs18HYbBenoIkwkyAohWrX2wJRylfvLVfztiI5FQIcatp9S4CVPTaMP1RHNmwRZIUSr5KfCfeUq95WrNQbNqn7QKizzgJ4q/L7MOhrnK/Csp4Zi52RVNGMSZIUQrcoNqEy7rjJFD152lFy/08JyDw2HK8ZiBOgBiwrhMuAPbTWcl2ZYUQMJskKIVkGnGse7TipXqWuuJBXYrlVY4aFwvMpAx6IqLa6vtFX4SQZDilpIkBVCtGhdVXjouspEvVrnDU8PbNIqrGijkFlLydSySnixh8JWGaojbJAgK4RokXpVBNfxerXOWXfKgSQPhU88FLLqiJnFGgVQ+VYLn7SRACtskyArhGhR+hjg1+UGRtmxqlwZ8I0HrPTQcMHOeFkM/E+jML+tDNURdZO5i4VNMnexaC4G6FV+rYeh+rpvaSUKrNEqrG6jcMnB87TF2GGqUAqxwg5SkhVCNFsKcIte5eFyGGSoO7gWovBFG/hCq9Q7SJYBZRJghZ0c6hMXHKgyJFIlOND6wzwksubtbmPEGG5b8xzDZro6I84Sx2vvvcbkHrXv0W3Sa/ztlbimy5IQTqQAw/Ww9JqBhWVqnQE2X4FFbRTu9FJY6lH/ACuEoxwqyT6ZaOCu2w28NF/L2o0KwYEqK97XWwXXmc94sD/VkU/wjUQse5D+FqPBC1M+4b9vXnAka81K37tj6HxTV46vO8CFw2fq3F6nsRMYFj+VqQP94OHfsq7KcpPdJv2N5W9Ppts5T+LYzvZGeh1CNDUtMEqvkliuEmbHpP0XFPjEQ+E/HgqlTs+dENU1qLr4rtsNBAeq7E9VyMpRKkq0Bvanau1PZOZI/He+w5oVFY9HjOG2px9k2Mx32LPC5pH227WV/+7a2kiJuaEtz5P4ey+Wvz2ZBctKKRz9fGUgHftWRYBdxx8efl4CrGiWHF0RJ0uBjz0UNngolDk9d0LUrkFB9s7bjSXYl+Zrycoxlmyzchysh1mxhj2Wj3dt5ac7IhnW/2bgcEOy16qc/fdvSQSWvz2VJdtg9ujn2T72LbYunloRYKuXcIVwd46uiJOpwPI2Cps1CnqpEhZuoEFB9puNCk8mGquMFy3XOFhNXD/BC55jGJvYw3iGVbRBGquXsap2tqpyHjGG257uyZm/L+XoLqheRV3AT+bnmq+z//4tY66WsnXxVJbsvIULXUK58dznxoDr6swJ4QBHV8Q5rjFOfbhTCw4u/SqEUzUoyK7dqGFwRaen1/9oHJRmbK9tyBxjNxPSA7KSbJRie4wnJOkd1vwBmHkv9yY8yL1rICupotp55r3cmzCJiBE1B87gBQ/S/5dNrHnYeA7fF+4luAE5ditbnmfM6904/Mowul3aw58lwIpmxNEVcQ5r4F8eCt9rZcyqcE8NmnEzK0dh5jMezHzGw1xN/Pof9Q3oZXwjEcvGE1yUyk+22mMzN1W2167YyU9FNW3zo/vQG2s8h+8NUHgx17yl8M01zb4Uazb2Lba+NAzPzAzOth/Gn7a9hfQpFu7OT4VZ11W+KTHwm+t1B9gftApPeio85qlhjwRY4cYaPK21qePT2Ps9zCXYIZH1+MiPGMNta0wlzK0UOni4ZdC07QJHd57BN/pB7l3jXiVYRVFABdWOwfQ16TbpbxVtsJ8ze+QYhj/xOWe7TmXJtr/ZHN4jhKvcgMpT1w2su2bgETuWnPtOC7M8NTzZVuEHjQRX4f5sVhcPiVR5MlHPgVSFtRs13HW7sbXD1MlpxfuVVcRZOZhLsA6XZGfey70J3clKeof/NlaPYltWrGHNCvB94VFuW/MccIY9964hqwlODVBWWILWQ0vHkM7moTpt2nnio+uIvvQ6Vy4UOJxm5TAdizbYLc8z5gnYungqC5ZR4/AeIVwhUIUZjbAijhDuzmaQNQZOGJJo4MnEygBr6uC0P1XhrtsNrHi/3OIYhYXLHRnCcy/3Jvjx09/fafIq28I3l7KGmxm2ZjwhMyGrKQI8kHf0HIGRPQiM6omXf3uKz1/mhr5BtLvBl5wfT3H1ooPleFvDdGwN7xGiiTX2ijhCuLs6gqzCS/O1DIk0EBRo3PbS/MoA+tJ8Ld9s1Fg9v2i5Yz81g/t3pzDlk1oDrO8Lj3JbdEEjljRvJGLBzWT9wfEq6cZSlHWJY9/sp/e4gfj31NGpdyDXS8s4/8MJTmz60fEEt2xgz7fXSPl/f66xpGoc3lPAH27ZJgFWuISjK+J8W7EizjkJrqKZq7N38f5UxebkEnU9b5uxE5JvD2PvYGvGYTVOqcK9IZLb1kSaH2YlNeLEF3a6lJHDpYycRkptO3+eYzt8nv33n/ntvxvpdELYydkr4gjh7lrHKjwjxnDb0534qQnbXVsKWYVH1EdTrYgjhLtrHavw9OyEr6vzIEQL54oVcYRwd60gyN5IxEhju6+UYoVofApwq95YLdzPjumW8hVY5aHwlVbhqgRX0cK14CBr7DUcDJC5iTUteFUfIVxBVsQRom6to01W1Ju0yYqqTCvi/Fqv0l1WxBHCphZckhVCNKb6rIizoo3CJlkRR7RiEmSFEDZ5AXeWqzxg54o4aRr4l6yIIwQgQVYIUQtZEUeIhpMgK4Sw4qfCfeUq99kxYT8YV8RZ5gH/kwn7hahGgqwQAjCuiDPtusoUPXjZES2/0xoXSj8sk/YLUSsJskK0co6uiLOjIrjKijhC1E2CrBCtVH1WxPm4jcIp6SkshN0kyArRysiKOEI0HQmyQrQS9VkR51MPDbkSXIWoNwmyQrRwsiKOEK4jQVbYdO2azDLbHCnAYFXhMTy4Ra27KFoIfKbo+UwxUGBQ4ZrTsyhEqyBBVogWRAFiVQ2PqhpurrPF1bgizsfo+QK9rIgjhBNIkBWiBdACo1UNj6Il3I6S6wVUlisG1ip6WRFHCCeSICtEM+YB3F4RXEPsCK5ZqCxT9CQpBlkRR4gmIEFWCCdQFIWoniOIj3qIMv01vtizkFMXfm609NsCk1QtiaqGYOoOrqdQ+UjR819FpVwmPxSiych6skI0Mp1fN6YNf4bgTr3YcmgNXW/oxc3dh3H4zB6++H4hRSWX6522F3CPqmWmqqGzHcH1uKLyIXq2KwZZEUcIF5Ag2wJ4enrSvXt30tPTXZ2VZkur1dKrVy9OnjyJXm/HQNIadPDuyN1DZjMg5FZ+PrffKqD2vPEmZsQ+h1+7Tqw/uJKdP3+D3mD/edoDU1UtD6gaOtkRXA9XBNfdikHKrUK4kNbPz+//HD1ozpw5jB49mrS0NK5cueKMfAkH3Hrrrdx11114enqSkZHRoLSCA1X6hqooQFFx5c18cKSB4MDq292FTqfjd7/7HdHR0ezdu9fh4/v37899991H586dOXbsGKpqf2hSFIVR/e7isTF/watNO5Zue41tP31FWXlll6LLV/L47vi3XNeXMTFqBkNCx3L64nEKrv5Sa7pz5sxhwtBhDD50hFevqcSiwbuOAJuiqPyfUs5iRc9pRcKrEK4mbbItwK5du2jXrh1Dhw4FYOPGjfVO68mZBu6aYOClN7Ws3aAQHKiy4n09wYGVN+yHntFyINWx2eHnzJlDUFCQ+XF2djbvvfdevfPZ2A4fPoyXlxfx8fEAfPXVV3aXaHveeBMTImewP2MrX+77B4ZaSqh6g55tP33F/07t4jfj/8rUoU+z8L8vcvVaUbV9bwBu2bWHvj/+hLbsep152K2oLKWcHyWwCuFW6lWS3bt3L8nJyW5dik1ISGDGjBlkZWXxyy+1lxbclalk1rt3b1JTU+vcPyMjAy8vL4YOHYqXl1e9S7RjhqtEhKls/U7DsQyFmVNUxgw3sC9Vw4GDCr4doLhYYX+q/aXZ2NhYNBoN7777Lps3b+b06dPExMQQEhJi12uzx5UrV0hOTq5XKdYkOzubK1eucOuttzpUou0bfAsDewynW0AYfYKiOPtLBkUl+dX202q03NIrjofj5tLJ50Y0Gg9+OLnDKsgGqvAUHvxV9aBLdg4afe0tqSqwTTEwVynnE0Uv0x8K4YakJNuCmEqwQ4cO5dq1a2zfvr3Bad55u/EmP3e+hqwcY8k2K8exu3lycrLV47S0NE6ePElQUBA6nY7c3NwG57OxHDhwAID4+HjKy8tZt26dXSXa85cz+WLP37k9cjp/mLSQw2f28NW+D7h85SKKohAaeDP3D/sdHdt35rtj33Ii9zB3Dp5lPr4bCg+rWhJUTZ1fSgOwQTGwTNFzUlpchXBr9Qqyc+bMAeC9995Dp9PxyCOPcPHiRQICAvD39wdg586dpKWlMWPGDLy9vc3bkpKSAGNJc8iQIWzatInx48eb9zly5AjLly83nys8PNwqDb1ez7fffmu+ccfGxjJu3DiOHj3KwIEDKSsro7y8nA4dOgAwa9YsSkpKWLlyJWlpadVeS9X08/Pz+eijj8jNzWXOnDn4+/tbHTtnzhy8vb1Zt24dkydPJjs7G4B+/foB1HiuhIQERo4caX5seQ7L6wkQFBREQUEBPj4+aLVa/P39WbBgQbXrUpuNGzdy7do1Ro0aBdDgQPvNRg1PJupZ8b6eRSs07D/o/OKS6bNx9OhRBg0aBFReswkTJpivteV1NH0Os7OzzdepahW15efPlgMHDlBeXs4dd9wBYHegzS04xz82/ZmeN97Evb96gpfvWUbq6d0EdOhC94BwDp3ew/vrn6Oo5DIRwbcA0MOg51nVg9tUTZ3zMxk0Gn4O60X68F/R4aYIfkP1zxJAYmKi+RqBsYS+atWqat9T0/WIjY0lPj4erVZr3t+yKr9qelU/i7auc9Vj7X0PhGgp6lVdbGr727t3Lz4+PgwaNIjAwEC2bNnC0qVLCQ4OZvDgwURGRrJx40bztv79+5urb8PDwwkNDSUkJISVK1eyevVqSktLGTZsGF27diU1NZXY2FimTp1Keno6CxYsYPPmzXh5eXHbbbfh6elJWloaISEhRERE0K5dOxYvXkxSUhI7d+7E09MTnU7H8uXL+fLLL2usMjYF2P3797No0SI2b95MdHQ0Q4YMIS0tjcOHDzNgwAA6duxIamoqCQkJhIaGsnr1avLz8xk0aBDdu3cnLy/PnL/IyEhiYmLMrzMxMZFBgwaRlJTE0qVLzecYMWKEeZ+hQ4cSFBTE//73PxYtWsSuXbs4fPgwERERnDx5kgULFjhUrZqZmUmnTp0YOHAg6enpDlXrV60uzsqBPqEQEaoyQn+zawAAH4JJREFUZrjKQ1MMZOcqHMuof7DV6XSMHDmS7Oxsvvvuu2rPmz4bqqry6quvcvr0aQYNGsTIkSMpLy+32hYQEEBqaqr5c1hUVERqaiqJiYl06tSJRYsWsXbtWjw9PQFq/KFVk5ycHDQaDYMHDyY7O9tmk0O3G0IJ6dyH/RlbuK4v4/KVPPakbeDsLxnERkyirLyUxf99id3HksydoYZ4+3P3ucNMv3iKMBSb3ZnKgKT2npx8/BFKx4xi788/s2jRomrXACoD3vLly1m9ejWnT58mKCiI48ePV/uepqWlmX+kmr6nhw4dYsiQIeYOZOHh4fTq1Yv58+ezefNm83fUy8uLtLQ0m9c5MTGRoKAg83OlpaWMHTvWfKwQrYFjvVdsOHbsmLl0uWfPHkpKSqptA+MN1ESv17N582bzFy45OZljx46ZqxGjo6PJzc21+tWclJREdnY2YWFhVuc/dOiQw9WOw4YNIz8/3+qXdUpKCl5eXoSHh5Obm8uhQ4fo1asXw4cPZ8iQIezfv9/qBmFZcgL49ttvza/TdIPavXu3VZWp5T4m+fn55qrKhoqLiyMyMpLDhw83uCo2K0ch8RktDz2jNVcTv/6CdUcoR02fPh0vLy/zZ6ImJSUl5utkql6uaZvps1KVv78/JSUl5teflJTkUAkqKiqK2NhYTpw4wYkTJxx5eQCoqsrP5w6Qe/kMmReOkltwFoBIVWGh2oZ5ORl0yTpoM43ytm34acggJmjK+IdvO676diA7O9v8Oqpeg9jYWPz9/a2+U2lpaXz44YfmNHNzc60+i9HR0Zw8edK8zfSZ9/f3Jzw8vNrxaWlpFBYWEhAQANR+ncPDw+nevTvJycnm50x/V/3uCtGSObVN9uLFizafLysrqxYELl68SK9evejZsyfe3t4cOnSo2nHp6ekMGDDAfHMtKyujoKDA4fz5+/sTFBTEggULrLZbVg0mJSURFhZmrhqueqPOz7fu4FJQUEBpaSkBAQEUFBRQXl5e7Vd7Wloa+fn55hsVYHWjaoi4uDji4uLYt2+fOSA1VHCgyoFUDWPv1/D6C3rummBgSJTK2g2OlWZNNQelpaUsWrTI4ddbWlpq9/uckpJCfHw88+fPt2pesEdUVBR33HEHJ06cYPXq1fUeN2uioBKjapiF1q4VcYqAVYqejrMe5ZqXJ5dS9mL6GVH182bJz8+P0tJSm6VEy+N1Oh3e3t41fgdKSkrMf1dtUgHMzSS1XWedTke7du2YNGkSkyZNskrbdKwQrUGr7/hkT1tnfn6+VZuTu4qLi2P06NGkpKTYHWAHRxp4MlElJVVh7UaFuyYYOzqdO495+A7Ai/M1ZOcoBHUxHhdcvfBok6nd79ixY3a1LTdUcnIyycnJJCQkMGnSJOLj4+0KtlFRUUyePJlTp041OMAqQMiFNCambSFYrfurdgmVlYqBLxQ9V4A5Xp71PrcjbLWTmtpUTfuY2r5NarvOAFevXmX16tVSNSxatUarLm4sYWFh5Ofns3fvXkpKSmqsWgoLC2uUkp8peNZU3WgSGxtL9+7dWbduHf7+/iQkJNhMMzw8HC8vL06cOEFubi4eHh5W1cKmffz9/ess6TvCMsCuW7fO7uOycxS6Bqo8mahny+pywFhFfCDV2Jt4/0Fjj+KP3zc+HxNpICtHYeFy+z86pgC7e/fuJgmwlpKSknj77bcpLCykd+/eNve1DLArV660O8Aezz6IV5t2PDb2/9D5dUMLjFM1rFbbMP5/nxFcnGfz+AuovKXoiddc518VAbY+CgoKzE0d9sjNza31OwbG0mhQUBBHjhyps6q96nWu7bMvRGvj0iDr7e3NlClTzEEuISGBoKAg8/SAKSkp6HQ6EhMTzcckJCSg0+lISUmxmbapWtFWAD1x4gS+vr5MmDDBvC08PJxZs2aZ/x43bhxnzpxh9+7dnDx5kiFDhljdOPr162cOvKZ2MVOVnanNbPjw4cTGxpqPiY+Pp7S01GYbrOkGaOqtbcvQoUOJi4tzOMCCMaC+OF/DouVa1m7QsHaDhrH3V5a6XnrT2B5r+fzMZ7QOncN0063tRh0bG8v8+fPr/AHjiFmzZjl0g+/Tpw+TJk1yOMACXCrO5d2kZ7hy9Rfe7Xcv//UM4C3Vo84l57JQeU0p5w7NdT5rhCXnkpOTyc/PZ9y4cebXbvl5rkl6ejpBQUFW1z42NpZp06bV+BmcMGGC1eParrOpSaTq92XatGlW3wUhWjqXVheXlJRw6tQpfv/735u3WVZdmar24uPjzW1GJSUlLFu2rM4qqOTkZKKjo5k0aRLjxo2rcQhPTembhgjpdDqmTJlCaWkpGzZsAGDDhg088sgjTJkyxRzMTO3DpiE6VYdULF++nMTERKu2qezsbF5//fU6r4+pvauuITyHDx+msLCQI0eO1JlmTQ6kajhgo/NyXc/Xpba2bzC+3/VpT6+Lj4+PVXCpq1kgIyODr7/+mp9//tnhKuK2wG1Xi7hz6wKC7JhX+KxWyxLDNaesiPPee+8xZ84cq9e+c+fOWvc3fddGjhxp/gybhqGBsZPejBkzzO9denq6VbuuretcU16ys7P57LP/3969R1dVHXgc/zLOKJAHARNAEk3EMIWAlUcbeaSkBLEJpLQSFpVH6dKiCVE6M0VJsyg4QFkUqp2uUjCRtFYEgi5QqzzSAQKxYAItiopAFxESDQgmQpJLwqNDmT/Ofd+bx01yc0+S32ct1uKeu88+++IfP/fr7PzW/kyRDiNgBwTY9kI2tH/V7Lzty5TAsf33+Oijj9ptH6avJ+J8dkcQv/tHLfu4qRNxRLqILr/wSTqHXr160b1793Z5lq8n4pzpHsK6m/Xs/8dlvZ9JpItRyEqnMHbs2CbnuVsrjG7MuvUvPHrrNkKaUf5v3W7xEv/H3258pXAV6aIUstKh2d5wZJtH9Md7kIOAJ27dxoxbTR81BzoRR0QcdGi7SCNuB9bd+je+0YyXSOzr9k/yuMkphauIWKknK9KI8bf+pdGA1Yk4ItIYhaxII642EJz/B7zT7Z+83O0mnytcRaQBClmRRhzrdou/ccvem70BvNHtn7zS7SYXFK4i0gTNyYo04XaMYeOr3eAk/+RSoBskIh2GerIiTbgB7O2m10eIiO9Md0CAiIhIZ6GerPjkjuRtjIgPtn+2HFnNJwX7A9giERHzMmlPdjCp6emkp88iISLQbeksxpA1eyP5qTNbVcv1gumULE+mZPl2LrS6TRPo95MCRs9p+JSYjix4xlsMT1/C7YFuiItYHt+4hhffWsOzjwe6LSKdn+lCdvCUdNLTY6k+bgl0U0Q6la8tXsKLb82Ev5cHuikiXYapQjZ83CwSKSI3dwenAt0Ykc7k8af4z6+V8pvvr+APXwS6MSJdh6nmZKsObSE30I1oSsRC8tIeIMj22fIhv9v8AocAY0h2PsNDoKxoLtkn3e6xlY1YSF7aIE5vfwUeNsoDULGbmTtcz9ocl5DD08N6Oi64lxmygvxE2Jmzi8jZXupyb29ICvkZjkPqXdrZlgYsZ+i8eMeL9KuP8MFvl3Ld23dhaYxemma/9cKOZMre9/WB4wlP/ylRvWyfz1C65qdccS7ywK8Z/p2Bjs81RzmRu4Ib1o/BM94itrfrtdsf2kzcyIuOuh74NcO/A6VrPiZs0fcIt5are//XnN77LvAYUU7XYRRxi96yf3KUa2d/WMf8P7T/Y0W6OlOFrOkNWUF+YgTHts9ldaVxaU7qRp6evRA2v8Ahilm9GSNoE1cw5+QSNjGGrIedAtZeWU+Gp82n7viLzDxYbA3DFPISyph3sNhe95SocnbmLME4QnsmqzJSyJ89wK2uaKZkeNa1akg+2SdfYF4O2P8HoMYzyNvcyHWMTu3H2bxkPjlvXAqdU8CInyw3gvb8Uj5ZDsacbBb3XtpOyaYNrXigNdhqjnJijS0gHyNqxmNcef1lwBaWULHx+1RdAFsoxy36tWcYN2kgsYv6UbHx+xy7YKs7nfDj71J14WUq1rxMBd5DW0S6FlMNF5vbGLJGRlN3/BV7wAJsOvwhdSGDnBZoFbN6827KiGZK6kzGJfyI4SHl7HQJRUPd8RftgUrlCxyogKDosYwDiFjIt6OgrMgWsAD5ZBeVg8vzDGVFc53qOk8lEHHnmDb79c03gX4J92E5so6L5x1XawuPYAmLI2xA2z8xeMb3COcMpS5h9jIV1oCFx+g7Moi693OtAQvwLlV/OkodAwl7wNcn1lGxcba9rhvHT1FHEN37te53ePo2y7buYtcu73/Wds71YiKdinqyzRZDWAgEDZtP/rD5Ht+GhQP28M0ne/sA8tJSeNojKB0qvyp2+Xy2uh6iwrgXOBQeRhDlHHAfyj15grLEFLfn1VNd5Vwon+wcP/dWGxRLjzAIic9idHyWx7d1/YHznne13Hi69wbKPm64N9o/ih7Ucfm42zDthSIu14yid8R4IABDuE06wHOPHgh0I0SkFRSyPnLpfTYmPMw+D2r0KJtxD4ClmrMtbZyJaP+siIhC1gdlVFsgJiyGJgMzYiF5idFGIH81mfzEH5H192KXYWZv7g3rCTXnjWHlqmrqeIChQwDn3uyQOGKo51iV9zoCr5Sr1dA/PBZoj5B9l2uXfwq9o7gdvM99XqjgKqPoPWw8VReceqz9E+ndC65WmrEXC8Zw8SK+Ger920/fnMyC1kxli4jfaU622YpZ/X45RKWQl9DYXKdjodPLB4vh5BJ2VvRkeNoK5jRy17iEHKZE1XPssHWYt/I9TlsgJtH5vpmsSoyGiqImA9tb+8/VAFFxjbaj9fZz8eCnMDCNockTmix79RIwcDgN5EizXHn3KHW9RhE34zGnq8bCJ8PLVJdB0Mh0wvvbvh9P+PdGEVRzlC8/NK7cuFQHvXrbXx5hLGgKoqWM+gYT2r/pst4d4LlHJzN5svc/ClgR8zPXKTwRCcyaNtSxtcNZRRG5O02we3bICvITo12v2VcOG6t/Y6jn2PYMpyC0XbeuFHbfVgOA8ypiB2OFseOzx3C1fcVzRjOC17HFyMbXLTyhcwqIG+jtm085sfwpam0fR65jdOp9rkWct/HYWVcYhzmutGwLj/vWGc8tPB6hWfYnjtkXR4HHNqCyP3Hs7/dbt+w4b+Hp57Lwif5LGDR3FFf//H0qPnRtVfCMt4iNcXwO2BYeJvLsW9/B63+62g/4zdx8/t7eTRLpAswVsl2FNWQr/bVHVURETEFzstJh9Y5LJDr1vwLdDJ9dq/qMU3/4SaCbISLtQCErHdblE0VcPlEU6GaIiDRIw8UiIiJ+otXFIiIifqKQFRER8ROFrIiIiJ9o4ZOIiFVmZmaTZdavX98OLZHOQiErIuJk7e/XNvjdgh8vaMeWSGeg4WIRERE/UciKiIj4iYaLpcXuSN7GiPhgx4Uz2ynZZO631tvbbKK2Tlz5HIvHhEBpAUlP7g10c8wvvZbyafDad0JZ5HR5zfrPSKmM5P7nbmuzR/3qN+eYORAglPypIXzWZjVLV2G+kB2SSvr4SMdnyyds33IQ057s1mFYDweo2c3MHW1woPvIdYyIh7N5yVxs00PYWyZ0TgFxfbwdQCCdysQ6Pp5WTekb97gELMCi7XeSsugcHy9rm6BN//klZg40wvVZ6zXNyIqvzBWyEQnMGh/KJ2/kcrASYDCp6YmkTakyxwk8Yhcadx+c2W6KgPXF9YLplBQEuhWu9i1exr5AN6JDuM6+RV9BSSQTc718vS+I+2NvUj7tMvkTw5nZqn/UmyQNvkrtkV72gBVpCXPNyVYeZEvuFmvAApyi5LgFomIZHMh2iZsJ9OgT6DZIV7Nm/UVia+7kt431UnNDee3Tesam1/FE+zVNpEHm6sk2KJTwCMDng8r9wP0sWPtZsuB8XqvLOa22e2xlIxaSlzaI09tfgYedznet8BzKHZeQw9PDejouuJcZsoL8RNiZs4vI2V7qcm9vSAr5GSn22309T7Y5vA3dGnOhFx1nzo5cx+hUOLH8GH2WpmE719xyZDWfFOx3rXDAcobOi3ecM2yfT32CGKd7IZ4RSx3dVOe63OePvT7H3i6nc3Ddz8D1pd1NsM/FWl0pzmHq4lKXMhkvPc8MCkg6NoTC6bZzjC0cXrWM7D1uFWYucCrjXl8sq97MYOiJHKaeS2m8Lrd6vM4Vu5ehnNeT1pLjUughcguTGeR8yUtdGS89z4xYx+fT254h3WMr6nVG3QelbwTR1Ey6MWz8FY+mB7HBW49XpB2ZPmTDw0KAc1SZIWDtB6TPtR+QPid1I0/PXgibX+AQxazejBG0iSuYc3IJmxhD1sNOAWuvrCfD0+ZTd/xFZh4stoZhCnkJZfZD2Y0D250PczcOf8+fPcCtrmimZHjWtWpIPtknX2BeDrTFnKzHQqewNEYvTbN+uMLZvOk+Dh/fR9zSfpzNS6bkvK3+p+j30X5HPdbQsxxZTYktxEauI2YklL2/gbLlGyij6TlZxzCxEcxBXsoYz3eeZzYOlB+xdJ3rgfTNaXczOIaJjTC6q6GCsckURnzAyqS17LOG5YOZs5m4Z7N9mNkW2M4BNXHlAlZNWusSoMFjMiiknNeTniEHa8A51WXUc8n+vS2cC1/CEY6TZvP28JMkJdn2kxplZrw5m9OP2NoUy6o3kxnU6GIu62+pLCApyanu7OfJxS1o068TS0/eK/Vakds/bHeOp8OwATeBtlsEJdIS5houdjcklcQosBwvIfAzsmPIGhlN3fFX7AELsOnwh9SFDCIhwnalmNWbd1NGNFNSZzIu4UcMDylnp0soGuqOv2gPVCpf4EAFBEWPZRxAxEK+HQVlRbaABcgnu6gcXJ5nKCua61TXeSqBiDvHtNmvB2tQLU+mZPlqzlZj9CiXJ1v/+Bqw4B7M1z86gYVgeti7pk8Qk2rM/br0Et9/irL3W/1z3DzBXfHBWI6sc/od+7m47QgW7qPPSF/a3cZqPmClPbxK2XvCAr36OHqIk2bzH2NCuFKc4xJM+xav9ezt1hhhbetxnq50rushZowJ4fQ25x5pKdl7yiF2CBm2S3s2M9UlOL20iRj69IIrlWUN/67MFB7sVc7rznXt2cyuUhg0/CGXok8MuAE1PShs1jzrbXxeBaFDrrV8yHjCde4P7cHHhxTS0jrm7clGJDBrfCRYPuF/D5lhbXEMYSEQNGw++cPme3wbFo7TcHY+2dsHkJeWwtMeQelQ+VWxy+ez1fUQFca9wKHwMIIo54D7UO7JE5Qlprg9r55ql3+ifLJz2mAFcaANuJsg4MKJdthqM+BugrhC1UduQ77n91NVHU943wmAb8PB7WZQH4KxcPhAM7p5lRddFlm5LLqa1I+7gODpz1M43f1GC9GTAGtouw/xGi45/X0vrxePY/GYDAoL8TpMPDGyDxDCjMLnmeFeVU0/JoK9bYMi6oEeTf++1rr7GCfePkdobW9WTO2DRpultcwZshEJzJo2lBDOUWSy7Tsuvc/GhIfZhySNHmUz7gGwVHO2pY0TaQPe50QdjIB1ncs1hpldy9kDPHMBhdOTKSxMduuVg/e5XC9tquwJ4T7+kKp/bXL+1sPnw4n777/AhHpOvH2OR/8UyYTf+1qJiIMJh4sHk2oL2NwdJhgmtimj2gJBYTFNF41YSF5itDFHWlRO0LAfkRXR9G33hvWEmvPGsHJVNXVEM3SIW6EhccR49Fw7qfOfUwcE9Z3QTs8KJvzrbs8aMIHwMKj70qS9WIDTl7hCCH0GNV20UXsu8gVwV6RHF9VJLNERQOkhz6HohqxfS1LSMyRtK4desTw0ybi879wloI/RQ27ChvO3Q6+rJE1szgNvcnc41Fa2og+x/w4+roV+d91seR0imC5kw0mYlUik6QIWoJjV75dDVAp5CY3NdToWOr18sBhOLmFnRU+Gp61gTiN3jUvIYUpUPccOW4d5K9/jtAViEp3vm8mqxGioKHKZF25u+8/VAFFxjbajLVyvugJhd3KH9bPHgqlm28AXR64QEp9FjPOcqHXhk+cz4wgb0MJGs4FLZyAk/in62euYQL/p8YRUH+GLNp8DbkO2eczpz7HKKbCMhU++VLSX14stBI/JILfBw2hKKa8EIozhXOM5rqukG2IMD1+i3BbO63dzuCaEB7MXOOZ7G5J7B6XUM2x8M0Jv4jWG9YIvz2s+VQLPVMPF4eMeZmgIQCSJ6ekkOn9ZURT4F1KcXMJMVpCf6DYva185bKz+jaGeY9sdC5027djN0IwUpmSsgBzH/GxM4kby7T/SeRUxGAuoio0VxhkbmWK9al9B3AKbdrxI5Oz5LvX5YwvP9YJ1nP33LOJs22nObKdkx3BGp7akrumUfLmO0akF9Lfdf2Y7JZs8y50ILyBuXgH3Wq85b6sJnVNA3ECnG+KzGB2fBXxqXzlcuymZD5K3McKpDn++ftFjXtM2f9nMIVRnOU8+w+mVz7E4+3kKs41rV4pzmNrc3qbVvsXLYOVzLHafl3WaU815soARhcksLhzBYjCGgLf1YbFz+UmzeTt7BK7/a+X+u0rJfiTHWJnsNi/rOWR9B0c/hR+MrmMNoR5ve3K2Ju0rQmvu5LeaUBUT6HbPPffcCnQjuhzr3tVKPwScSOd1nX1/vkjfkkZem5heS/m0G7y3pmVvfMrMzLQedXeT1zZd4P5T/Yn7heNZC368QOfJik9MNlwsItKQO5j4Rhiho8/x8TIvw8bW9xrXlvRu5SsVAW7jsyoIja/nV62tSro0hayIdBy5oUS/EUbo6DrWuH21Js14r3FbncLz7H/251BtLTPfPkfF2xaFrbSIqeZku4xK21uYRMRnuaFEe5lvXZTpeTJP69zGD+ZEulzRKTziK/VkRURE/EQhKyIi4icaLhYRcbLgxxoUlrajLTzNNG3aNAoLC6murg50U0REpIPQcLGIiIifKGRFRET8RCErIiLiJwpZERERPzHZ6uLBpKYn4rL92wwHA3QhI14q47sR7/HSI7O4EOjGiIh0cCYL2VPsyHUOVCN006egoBURkQ7H5MPFpyg5boGoWAYHuikiIiI+MllPtgGWaqoC3QZ/mLSFn2SPJcz2ufQ1lj+Z5VKk/8qPeHJMqOOCWxlvw7vGPV/yTtJDfACQuZel0+GdpKMMK/yB/azU6uKV/HbxBmA1P3S6DmN5srDM/slRzknSMl5/5ptcfHMyCxo8bnUea3dNo9/hNcxYdqBZ/yQiIp2JuUM2IoGHh4Vw7t2DnS9kM/eydHos1cUrWW4LsMy9/DATXrUeVznipTK+G1vKO0lfN8LSGoZL37y7BXOmsXy3sC9/XRXDq3tsQbyAlEkb2L0ni1eTshzP1JysiEibMGHIui1+qihiS6c72Hw1P5weC6WvufYQ1z/Eq7a/T9rCt2Lh7DZrbxSALF7dNoql04cxYhLs3uPLM2v566qv2++5cOA41WPGEj4I8KkeERFpLhOGrOvip8FT0klPj6UodwedZunTpLvpDZw9ltVwmUF9CaOUv6x3u77+KGen/yAg4fjt515n0YPBLteCH9nFrkeMv185vIYZ59PY9ch9rjc+uIhdu6yHkJ15g8lP57VDa0VEAs+EIevq1M4iYtMTGTkunFOHOt2gcYdyYNkM7DOrDc7JHmCy/bPmZEWkazP56mKH2kudKGD3fM5loHfkEw2XOf0l1cQyLNPteuYo7qWWqtP+bKCIiLQFk4dsOAmzEom0fEJJp5qXzWJPcS1hYxbzQ+cQtS58AmDPfk7XwL3T9zLCXsA2l7vbPrf6RWUt9OrLXdYSHquRfWTUZ8z5iohI65jrqLshqaSPd3nfE5bj29ligmFivxx1Z11hbOdlC4+xwtjx2XM7zROkvLmYb/ZyquPYKOuWHectPH1dFj7Ztg9d3hZjX83c/GeKiEhzmCtkTUznyYqIiK9MPlwsIiLScSlkRURE/EQhKyIi4icKWRERET9RyIqIiPiJ6d/4ZBb9+/dn1qxZTZb74x//2A6tERGRjkAh64O8LY2/c3ferHnt1BIREekIFLI+unr1aqPf19fXt1NLRETE7DQnKyIi4ifqyfpivIUTT10kFKg90p+4X9wW6BaJiIiJmbgnO4dfbt3K1q1b+eXcQLfF6t0Q4qZGEvU/vSH+Avt/HOgGiYiImZk2ZMc9O4GYQDeiIft7svMMDLr/RqBbIiIiJmbOkP1WFo+PCqJs1w7KAt0WERGRFjJlyM6ZMoIgywe8szHQLREREWk584Xs3F+SGlPHBxtXcyjQbREREWkFk4XsOLK+FQNl+1n9l0C3pXHPfhwKA6/w2gTX6927d6d79+6BaZSIiJiKqUJ23LOPMyKkjB0/2xTopjTt9yFETQ2m73+do+JtC7+yXr527RrXrl0LaNNERMQcTBSyc/juqCDqjr5DB4hY0n9+iYq3r/O3qZFETQ3h2UA3SERETMc8L6OYO8zYsjNqAVu3LnD9bvJWtk6Gsl2P8jOTLIaKDb8KZ4IVriIi0iDzhOzGn/GoR4DO4ZdbU8FE4SoiItJcJhouFhER6VzM05P1ahM/e7QjzNCKiIh4Uk+2RW7wjYFQW6UDAkREpGEm78majNMpPJyJIEqn8IiISCMUsr54N4S4P+ufTEREmkfDxSIiIn6ibpmPevTo0ej3PXv2bKeWiIiI2SlkfTBv1rxAN0FERDqQbvfcc8+tQDdCRESkM9KcrIiIiJ8oZEVERPxEISsiIuInClkRERE/UciKiIj4iUJWRETETxSyIiIifqKQFRER8ZP/B0yktPe1A8X2AAAAAElFTkSuQmCC;movable=0;resizable=0;rotatable=0;deletable=0;editable=0;connectable=0;" vertex="1" parent="1">
                    <mxGeometry x="70" y="200" width="473" height="310" as="geometry"/>
                </mxCell>
                <mxCell id="5" value="引用类型和它不一样" style="text;html=1;align=center;verticalAlign=middle;resizable=0;points=[];autosize=1;strokeColor=none;fillColor=none;movable=0;rotatable=0;deletable=0;editable=0;connectable=0;" vertex="1" parent="1">
                    <mxGeometry x="680" y="90" width="130" height="30" as="geometry"/>
                </mxCell>
                <mxCell id="6" value="addr1" style="rounded=1;whiteSpace=wrap;html=1;movable=0;resizable=0;rotatable=0;deletable=0;editable=0;connectable=0;" vertex="1" parent="1">
                    <mxGeometry x="695" y="210" width="120" height="60" as="geometry"/>
                </mxCell>
                <mxCell id="7" value="addr1" style="rounded=1;whiteSpace=wrap;html=1;movable=0;resizable=0;rotatable=0;deletable=0;editable=0;connectable=0;" vertex="1" parent="1">
                    <mxGeometry x="695" y="290" width="120" height="60" as="geometry"/>
                </mxCell>
                <mxCell id="8" value="obj1" style="text;html=1;align=center;verticalAlign=middle;resizable=0;points=[];autosize=1;strokeColor=none;fillColor=none;movable=0;rotatable=0;deletable=0;editable=0;connectable=0;" vertex="1" parent="1">
                    <mxGeometry x="620" y="225" width="50" height="30" as="geometry"/>
                </mxCell>
                <mxCell id="9" value="obj2" style="text;html=1;align=center;verticalAlign=middle;resizable=0;points=[];autosize=1;strokeColor=none;fillColor=none;movable=0;rotatable=0;deletable=0;editable=0;connectable=0;" vertex="1" parent="1">
                    <mxGeometry x="620" y="305" width="50" height="30" as="geometry"/>
                </mxCell>
                <mxCell id="11" value="" style="rounded=0;whiteSpace=wrap;html=1;movable=0;resizable=0;rotatable=0;deletable=0;editable=0;connectable=0;" vertex="1" parent="1">
                    <mxGeometry x="880" y="180" width="400" height="250" as="geometry"/>
                </mxCell>
                <mxCell id="10" value="{ n: 0 }" style="rounded=1;whiteSpace=wrap;html=1;movable=0;resizable=0;rotatable=0;deletable=0;editable=0;connectable=0;" vertex="1" parent="1">
                    <mxGeometry x="940" y="210" width="120" height="60" as="geometry"/>
                </mxCell>
                <mxCell id="13" value="栈内存" style="text;html=1;align=center;verticalAlign=middle;resizable=0;points=[];autosize=1;strokeColor=none;fillColor=none;movable=0;rotatable=0;deletable=0;editable=0;connectable=0;" vertex="1" parent="1">
                    <mxGeometry x="725" y="140" width="60" height="30" as="geometry"/>
                </mxCell>
                <mxCell id="14" value="堆内存" style="text;html=1;strokeColor=none;fillColor=none;align=center;verticalAlign=middle;whiteSpace=wrap;rounded=0;movable=0;resizable=0;rotatable=0;deletable=0;editable=0;connectable=0;" vertex="1" parent="1">
                    <mxGeometry x="1020" y="140" width="60" height="30" as="geometry"/>
                </mxCell>
                <mxCell id="16" value="" style="shape=flexArrow;endArrow=classic;html=1;entryX=0;entryY=0.75;entryDx=0;entryDy=0;movable=0;resizable=0;rotatable=0;deletable=0;editable=0;connectable=0;" edge="1" parent="1" target="10">
                    <mxGeometry width="50" height="50" relative="1" as="geometry">
                        <mxPoint x="820" y="320" as="sourcePoint"/>
                        <mxPoint x="870" y="270" as="targetPoint"/>
                    </mxGeometry>
                </mxCell>
                <mxCell id="17" value="" style="shape=flexArrow;endArrow=classic;html=1;entryX=0;entryY=0.25;entryDx=0;entryDy=0;movable=0;resizable=0;rotatable=0;deletable=0;editable=0;connectable=0;" edge="1" parent="1" target="10">
                    <mxGeometry width="50" height="50" relative="1" as="geometry">
                        <mxPoint x="820" y="240" as="sourcePoint"/>
                        <mxPoint x="870" y="190" as="targetPoint"/>
                    </mxGeometry>
                </mxCell>
                <mxCell id="19" value="obj1和obj2是两块内存, 只不过存的是相同的地址, 真正的数据在堆内存中" style="text;html=1;align=center;verticalAlign=middle;resizable=0;points=[];autosize=1;strokeColor=none;fillColor=none;movable=0;rotatable=0;deletable=0;editable=0;connectable=0;" vertex="1" parent="1">
                    <mxGeometry x="690" y="530" width="410" height="30" as="geometry"/>
                </mxCell>
                <mxCell id="20" value="整个js, 只有导入语句会产生符号绑定" style="text;html=1;align=center;verticalAlign=middle;resizable=0;points=[];autosize=1;strokeColor=none;fillColor=none;movable=0;rotatable=0;deletable=0;editable=0;connectable=0;" vertex="1" parent="1">
                    <mxGeometry x="80" y="525" width="220" height="30" as="geometry"/>
                </mxCell>
            </root>
        </mxGraphModel>
    </diagram>
</mxfile>